<svg xmlns="http://www.w3.org/2000/svg" viewBox="0 0 444.8 298">
  <defs/>
  <path fill-rule="evenodd" d="M221.5 262.2c30.9 0 58.9-12.5 79.2-32.8l4.3 4.3c-21.4 21.4-50.9 34.6-83.5 34.6s-62.1-13.2-83.5-34.6l4.3-4.3c20.3 20.3 48.3 32.8 79.2 32.8zm0-224c-30.9 0-58.9 12.5-79.2 32.8l-4.3-4.3c21.4-21.4 50.9-34.6 83.5-34.6s62.1 13.2 83.5 34.6l-4.3 4.3c-20.2-20.3-48.3-32.8-79.2-32.8zm223.3 33.6V206h-13.9v-73c0-5.1-1.7-9.4-5.3-13.1-3.7-3.6-8-5.3-13.1-5.3-5.2 0-9.5 1.8-13.1 5.3-3.7 3.7-5.5 8-5.5 13.1v73H380V71.8c0-9 3.2-16.7 9.6-23 6.3-6.3 14-9.4 22.9-9.4 8.9 0 16.6 3.2 22.9 9.4 6.2 6.4 9.4 14.1 9.4 23zm-14 34.4V71.8c0-5.1-1.7-9.4-5.3-13.1-3.7-3.6-8-5.3-13.1-5.3-5.2 0-9.5 1.8-13.1 5.3-3.7 3.7-5.5 8-5.5 13.1v34.4c5.4-3.8 11.6-5.7 18.6-5.7 6.9 0 13.1 1.9 18.4 5.7zM64.8 206H50.9l-.1-75.4c-.5-4.1-2.2-7.6-5.2-10.7-3.7-3.6-8-5.3-13.1-5.3-5.2 0-9.5 1.8-13.1 5.3-3.1 3.1-4.9 6.7-5.3 10.8v75.4H0V39.4h14v66.8c5.3-3.8 11.5-5.6 18.4-5.6 6.8 0 12.9 1.9 18.3 5.6V39.5h14V206zm10.9-30.6v-73h13.9v73c0 5.1 1.7 9.4 5.3 13.1 3.7 3.6 8 5.3 13.1 5.3 5.2 0 9.5-1.8 13.1-5.3 3.7-3.7 5.5-8 5.5-13.1v-73h13.9v73c0 9-3.2 16.7-9.6 23-6.3 6.3-14 9.4-22.9 9.4-8.9 0-16.6-3.2-22.9-9.4-6.3-6.3-9.4-14.1-9.4-23zm98 7c7.7 7.7 16.9 11.5 27.8 11.5 4.3 0 8.4-.6 12.2-1.8-.8-1-1.7-2-2.7-2.9-7.6-7.7-16.8-11.5-27.7-11.5-4.4 0-8.5.6-12.3 1.8.8 1 1.7 2 2.7 2.9zm47.3-3c1.9 1.9 3.6 3.8 5.2 5.9 1.1-.9 2.1-1.8 3.1-2.8 7.7-7.7 11.5-16.9 11.5-27.7 0-10.9-3.8-20.1-11.5-27.8-7.6-7.7-16.8-11.5-27.7-11.5-10.9 0-20.1 3.8-27.8 11.5-7.6 7.7-11.4 16.9-11.4 27.8 0 4.4.6 8.6 1.9 12.5 5.9-2.3 12.3-3.4 19.2-3.4 14.5-.2 27.1 5.1 37.5 15.5zm-72.8-24.7c0-14.7 5.2-27.3 15.6-37.7 10.4-10.4 23-15.6 37.7-15.6 14.7 0 27.3 5.2 37.7 15.6 10.4 10.4 15.6 23 15.6 37.7 0 14.7-5.2 27.3-15.6 37.7-1 1-2 1.9-3 2.8 5.2 3.7 11.1 5.8 17.5 6.5l1 .1v14.1l-1.3-.1c-11.2-.9-21.1-5.1-29.7-12.5-6.8 3.2-14.2 4.7-22.3 4.7-14.7 0-27.3-5.2-37.7-15.6-10.3-10.4-15.5-23-15.5-37.7zm114.3 0c0-14.7 5.2-27.3 15.6-37.7 10.4-10.4 23-15.6 37.7-15.6 14.7 0 27.3 5.2 37.7 15.6 10.4 10.4 15.6 23 15.6 37.7 0 14.7-5.2 27.3-15.6 37.7-1 1-2 1.9-3 2.8 5.2 3.7 11.1 5.8 17.5 6.5l1 .1v14.1l-1.3-.1c-11.2-.9-21.1-5.1-29.7-12.5-6.8 3.2-14.2 4.7-22.3 4.7-14.7 0-27.3-5.2-37.7-15.6-10.2-10.4-15.5-23-15.5-37.7zm72.8 24.7c1.9 1.9 3.6 3.8 5.2 5.9 1.1-.9 2.1-1.8 3.1-2.8 7.7-7.7 11.5-16.9 11.5-27.7 0-10.9-3.8-20.1-11.5-27.8-7.6-7.7-16.8-11.5-27.7-11.5-10.9 0-20.1 3.8-27.8 11.5-7.6 7.7-11.4 16.9-11.4 27.8 0 4.4.6 8.6 1.9 12.5 5.9-2.3 12.3-3.4 19.2-3.4 14.5-.2 27.1 5.1 37.5 15.5zm-47.3 3c7.7 7.7 16.9 11.5 27.8 11.5 4.3 0 8.4-.6 12.2-1.8-.8-1-1.7-2-2.7-2.9-7.6-7.7-16.8-11.5-27.7-11.5-4.4 0-8.5.6-12.3 1.8.9 1 1.7 2 2.7 2.9zm24.6 58.8l-2.4-2.4-2.6 2.6 2.4 2.4 2.6-2.6zm13.3 13.2l-12.2-12.2-2.7 2.7 12.2 12.2 2.7-2.7zm-24.6 6.3c.8 1.2.5 2.6-1 3.7l-3.2 2.2-2.8-4.1 3.1-2.2c1.6-1 3-1 3.9.4zm10.1 6.7l-7-2.6c1.3-1.9 1.6-4.2 0-6.5-2.1-3-5.3-3.3-8.6-1l-6.5 4.5 9.9 14.1 3.1-2.2-3.2-4.5 2.4-1.7 6.2 2.4 3.7-2.5zm-26.9 16.7l-1.3-3.1-8.7 3.5-1.4-3.4 7.6-3.1-1.3-3.1-7.5 3.1-1.3-3.2 8.6-3.5-1.3-3.1-12.1 4.9 6.5 16 12.2-5zm-27.1 9.6l-.7-3.4-8.5 1.6-2.6-13.6-3.7.7 3.3 17 12.2-2.3zm-27.7-9.8l-.1-3.5-13.2.2.3 17.3 3.8-.1-.1-6.7 8.2-.1-.1-3.5-8.2.1-.1-3.7h9.5zm-26.6-6l.5-3.3-3.6-.6-.5 3.3 3.6.6zm-2.8 18.5l2.7-17.1-3.8-.6-2.7 17.1 3.8.6zm-12.8-19.9l-4.1-1.4-6.2 5.2-1.6-7.9-4.2-1.4 2.9 12.1-2.2 6.4 3.6 1.2 2.2-6.5 9.6-7.7zm-34.8 4.8l1.7-2.9-8-4.8 1.9-3.1 7 4.2 1.7-2.9-7-4.2 1.8-3 7.9 4.8 1.7-2.9-11.2-6.7-8.9 14.8 11.4 6.7zM128 265.9l1.8-12.2 10.2-.2-3.2-3.2-10.3.4 5.3-5.3-2.7-2.7-12.2 12.2 2.7 2.7 3.7-3.7 2.9-.1-1.4 9 3.2 3.1zM314.8 56.6L327 44.4l-2.7-2.7-7.5 7.5 1.8-13.2-2.5-2.5L304 45.8l2.7 2.7 7.8-7.8-1.8 13.7 2.1 2.2zm-26.5-21.2l8.4-15.1-3.3-1.8-8.4 15 3.3 1.9zm-20.2-9.8l5.1-16.5-3.6-1.1-3.1 10.2-4.6-12.5-3.4-1-5.1 16.5 3.6 1.1 3.2-10.5 4.8 12.9 3.1.9zm-38.3-15.3l-4.6-.2 2.5-5.5 2.1 5.7zm6.6 7.5L229.6.2l-3.5-.2-8 17.1 3.9.1 1.7-3.8 7.3.3 1.4 3.9 4 .2zm-35.4 1l-3.6-16.9-4 .9-2.9 8.1-6-6.2-4 .9 3.6 16.9 3.6-.8-2.3-11 6.2 6.1 3.3-8.2 2.3 11 3.8-.8zm-42.8 6.3l-4.1 2.2-.6-6 4.7 3.8zm9.5 3.1L153 16.3l-3.1 1.6 1.6 18.8 3.4-1.8-.4-4.2 6.4-3.4 3.2 2.7 3.6-1.8zm-29.9 18.2l-2.3-2.4-6.9 6.5-.6-14.6-2-2.1-10.3 9.6 2.3 2.4 6.7-6.3.6 14.6 2 2.1 10.5-9.8z" clip-rule="evenodd"/>
</svg>
